<?xml version="1.0" encoding="utf-8"?>
<!-- Generator: Adobe Illustrator 26.1.0, SVG Export Plug-In . SVG Version: 6.00 Build 0)  -->
<svg version="1.1" id="Camada_1" xmlns="http://www.w3.org/2000/svg" xmlns:xlink="http://www.w3.org/1999/xlink" x="0px" y="0px"
	 viewBox="0 0 460 200" style="enable-background:new 0 0 460 200;" xml:space="preserve">
<style type="text/css">
	.st0{fill:none;}
	.st1{fill:#593273;stroke:#7C6FB5;stroke-miterlimit:10;}
	.st2{font-family:'RumbleBrave';}
	.st3{font-size:104.5739px;}
	.st4{font-family:'SignPainter-HouseScriptSemibold';}
	.st5{font-size:14.6176px;}
</style>
<polygon class="st0" points="108.9,28 112.1,28 112.1,28 "/>
<rect x="53.7" y="74.1" class="st0" width="290.2" height="129.1"/>
<text id="XMLID_00000102502906974917796950000018097511492629968298_" transform="matrix(1.0356 0 0 1 58.6582 162.8)" class="st1 st2 st3">Norway</text>
<rect x="43.9" y="-12.3" class="st0" width="204.4" height="132"/>
<text transform="matrix(1.0356 0 0 1 43.9243 76.6152)" class="st2 st3">Emil</text>
<text transform="matrix(1.0356 0 0 1 43.9243 76.6152)" class="st2 st3">Emily</text>
<text id="XMLID_00000097493900343264126350000005440969993656932284_" transform="matrix(1.0356 0 0 1 43.9243 76.6152)" class="st1 st2 st3">Emily</text>
<g>
	<g>
		<g>
			<path class="st1" d="M33.7,119.7h-7.8c0,0-0.1-0.7,0.7-0.7c0.8,0,0.8-3.4,0.8-3.6V94.2c0-0.2,0-3.6-0.8-3.6s-0.7-0.7-0.7-0.7h7.8
				c0,0,0.1,0.7-0.7,0.7s-0.9,3.6-0.9,3.6v21.2c0,0,0,3.6,0.9,3.6C33.8,119,33.7,119.7,33.7,119.7z"/>
			<path class="st1" d="M53.7,119.7h-6.3l-7.2-21v16.7c0,0,0,3.6,0.9,3.6c0.7,0,0.7,0.7,0.7,0.7h-6.1c0,0-0.1-0.7,0.7-0.7
				s0.8-3.3,0.8-3.6V94.2c0-0.3,0-3.6-0.8-3.6s-0.7-0.7-0.7-0.7H42l5.4,15.9V94.2c0-0.3,0-3.6-0.8-3.6s-0.7-0.7-0.7-0.7h7.8
				c0,0,0.1,0.7-0.7,0.7s-0.9,3.3-0.9,3.6v21.3c0,0.2,0.1,3.6,0.9,3.6C53.8,119,53.7,119.7,53.7,119.7z"/>
		</g>
	</g>
</g>
<text transform="matrix(0.9916 0 0 1 136.1942 179.7998)" class="st4 st5">Life of a brazilian girl in Norway</text>
<rect x="90" y="307" class="st0" width="0" height="3"/>
</svg>
